<svg width="32" height="22" viewBox="0 0 32 22" fill="none" xmlns="http://www.w3.org/2000/svg">
<path d="M2.00001 21.5C1.50417 21.5 1.08884 21.332 0.754006 20.996C0.419173 20.66 0.251173 20.2447 0.250006 19.75C0.248839 19.2553 0.41684 18.84 0.754006 18.504C1.09117 18.168 1.50651 18 2.00001 18H30C30.4958 18 30.9118 18.168 31.2478 18.504C31.5838 18.84 31.7512 19.2553 31.75 19.75C31.7488 20.2447 31.5808 20.6606 31.246 20.9977C30.9112 21.3349 30.4958 21.5023 30 21.5H2.00001ZM2.00001 12.75C1.50417 12.75 1.08884 12.582 0.754006 12.246C0.419173 11.91 0.251173 11.4947 0.250006 11C0.248839 10.5053 0.41684 10.09 0.754006 9.754C1.09117 9.418 1.50651 9.25 2.00001 9.25H30C30.4958 9.25 30.9118 9.418 31.2478 9.754C31.5838 10.09 31.7512 10.5053 31.75 11C31.7488 11.4947 31.5808 11.9106 31.246 12.2478C30.9112 12.5849 30.4958 12.7523 30 12.75H2.00001ZM2.00001 4C1.50417 4 1.08884 3.832 0.754006 3.496C0.419173 3.16 0.251173 2.74467 0.250006 2.25C0.248839 1.75533 0.41684 1.34 0.754006 1.004C1.09117 0.668 1.50651 0.5 2.00001 0.5H30C30.4958 0.5 30.9118 0.668 31.2478 1.004C31.5838 1.34 31.7512 1.75533 31.75 2.25C31.7488 2.74467 31.5808 3.16058 31.246 3.49775C30.9112 3.83492 30.4958 4.00233 30 4H2.00001Z" fill="white"/>
</svg>
